<svg id="Layer_1" enable-background="new 0 0 512.001 512.001" viewBox="0 0 512.001 512.001" xmlns="http://www.w3.org/2000/svg"><g><g><path d="m476.716 40.28c-12.139-12.137-31.887-12.136-44.023 0l-15.34 15.34-52.69-52.691c-3.906-3.905-10.236-3.905-14.143 0-3.905 3.905-3.905 10.237 0 14.143l52.691 52.691-53.088 53.088-16.902-16.902c5.852-11.568 3.444-26.725-5.909-35.79-11.547-12.042-32.476-12.041-44.022 0l-50.864 50.864c-4.227-2.082-8.916-3.182-13.78-3.182-8.331 0-16.147 3.229-22.009 9.09l-33.919 33.919c-3.905 3.905-3.905 10.237 0 14.143 3.906 3.905 10.236 3.905 14.143 0l33.919-33.919c2.084-2.084 4.878-3.232 7.868-3.232s5.784 1.147 7.869 3.232l59.764 59.763c3.906 3.905 10.236 3.905 14.143 0l49.7-49.701 22.811 22.81c4.339 4.339 4.339 11.399 0 15.738l-125.223 125.22c-3.905 3.905-3.905 10.237 0 14.143 3.906 3.905 10.236 3.905 14.143 0l21.402-21.403 18.211 23.225-23.114 23.114c-3.905 3.905-3.905 10.237 0 14.143 3.906 3.905 10.236 3.905 14.143 0l21.403-21.402 18.21 23.224-23.114 23.114c-3.905 3.905-3.905 10.237 0 14.143 3.906 3.905 10.236 3.905 14.143 0l21.401-21.405 18.21 23.224-23.114 23.114c-3.905 3.905-3.905 10.237 0 14.143 3.906 3.905 10.236 3.905 14.143 0l21.403-21.403 6.17 7.869c4.082 5.207 3.61 13.826-1.01 18.446l-38.066 38.066c-1.901 1.902-4.271 2.862-6.663 2.726-2.45-.148-4.747-1.438-6.469-3.633l-115.952-147.877c-9.118-11.628-23.984-19.406-38.8-20.299-13.121-.79-25.395 3.801-34.525 12.931-2.085 2.085-4.879 3.233-7.869 3.233-2.989 0-5.783-1.148-7.868-3.233l-44.823-44.823c-4.339-4.339-4.339-11.399 0-15.738l33.914-33.914c9.009-9.756-4.397-23.146-14.143-14.143l-33.914 33.914c-9.664 9.665-11.632 24.156-5.905 35.786l-23.974 23.974c-12.137 12.137-12.137 31.886 0 44.022 12.138 12.137 31.886 12.137 44.023 0l22.808-22.808 7.87 7.87c5.862 5.862 13.679 9.09 22.01 9.091 8.332.001 16.15-3.229 22.013-9.091 6.442-6.442 13.989-7.425 19.18-7.109 9.134.551 18.658 5.526 24.265 12.676l115.952 147.877c5.225 6.664 12.88 10.766 21.004 11.256.576.035 1.149.052 1.721.052 7.557 0 14.705-3.016 20.288-8.599l38.066-38.067c11.892-11.892 13.036-31.627 2.605-44.929l-99.589-127.008 40.67-40.669 27.29 27.29c5.863 5.863 13.68 9.091 22.012 9.092 8.331 0 16.149-3.229 22.012-9.092 12.137-12.137 12.137-31.886 0-44.022l-27.29-27.29 4.881-4.881c9.665-9.665 11.633-24.156 5.906-35.787l54.253-54.253 7.869 7.869c3.906 3.905 10.237 3.905 14.143 0 3.905-3.905 3.905-10.237 0-14.143l-7.869-7.869 15.34-15.34c12.135-12.135 12.135-31.883-.002-44.021zm-411.55 307.764c-4.338 4.34-11.4 4.339-15.738 0-4.339-4.339-4.339-11.399 0-15.738l22.809-22.808 15.738 15.738zm232.266-263.743c4.101-4.283 11.637-4.283 15.737 0 4.284 4.102 4.284 11.637 0 15.738l-49.701 49.701-15.738-15.738zm-4.081 95.322-15.74-15.74 42.63-42.63 15.739 15.739zm101.991 70.515c4.339 4.339 4.339 11.399 0 15.738-4.101 4.283-11.638 4.283-15.738 0l-27.29-27.29 15.738-15.738zm-15.338-97.407-15.738-15.738 53.088-53.088 15.738 15.738zm82.57-82.571-15.34 15.34-15.738-15.738 15.34-15.34c4.34-4.34 11.4-4.338 15.738 0 4.339 4.339 4.339 11.4 0 15.738z"/><path d="m142.64 284.712c12.138 12.137 31.886 12.136 44.024 0l36.28-36.281c12.042-11.546 12.042-32.479 0-44.024-11.546-12.044-32.478-12.043-44.024 0l-36.28 36.28c-12.137 12.138-12.137 31.887 0 44.025zm14.143-29.882 36.28-36.28c4.103-4.284 11.637-4.284 15.739 0 4.284 4.101 4.284 11.638 0 15.739l-36.28 36.281c-4.339 4.339-11.4 4.339-15.739 0-4.34-4.34-4.34-11.401 0-15.74z"/><path d="m131.24 207.143c4.075 3.707 10.401 3.422 14.126-.673l.005-.005c3.715-4.086 3.411-10.408-.675-14.123-4.088-3.715-10.414-3.412-14.129.675s-3.414 10.411.673 14.126z"/></g></g></svg>